<?xml version="1.0" encoding="UTF-8" standalone="no"?>
<!-- Created with Inkscape (http://www.inkscape.org/) -->

<svg
   xmlns:dc="http://purl.org/dc/elements/1.1/"
   xmlns:cc="http://creativecommons.org/ns#"
   xmlns:rdf="http://www.w3.org/1999/02/22-rdf-syntax-ns#"
   xmlns:svg="http://www.w3.org/2000/svg"
   xmlns="http://www.w3.org/2000/svg"
   xmlns:sodipodi="http://sodipodi.sourceforge.net/DTD/sodipodi-0.dtd"
   xmlns:inkscape="http://www.inkscape.org/namespaces/inkscape"
   id="svg2"
   version="1.1"
   inkscape:version="0.48.5 r10040"
   width="538.3125"
   height="68.8125"
   xml:space="preserve"
   sodipodi:docname="CONDICIONES.pdf"><metadata
     id="metadata8"><rdf:RDF><cc:Work
         rdf:about=""><dc:format>image/svg+xml</dc:format><dc:type
           rdf:resource="http://purl.org/dc/dcmitype/StillImage" /><dc:title></dc:title></cc:Work></rdf:RDF></metadata><defs
     id="defs6"><clipPath
       clipPathUnits="userSpaceOnUse"
       id="clipPath16"><path
         d="M 0,0 612,0 612,792 0,792 0,0 z"
         clip-rule="evenodd"
         id="path18"
         inkscape:connector-curvature="0" /></clipPath><clipPath
       clipPathUnits="userSpaceOnUse"
       id="clipPath24"><path
         d="m 56.7,721.2 498.5,0 0,14 -498.5,0 0,-14 z"
         clip-rule="evenodd"
         id="path26"
         inkscape:connector-curvature="0" /></clipPath><clipPath
       clipPathUnits="userSpaceOnUse"
       id="clipPath38"><path
         d="m 56.7,56.7 498.5,0 0,14 -498.5,0 0,-14 z"
         clip-rule="evenodd"
         id="path40"
         inkscape:connector-curvature="0" /></clipPath></defs><sodipodi:namedview
     pagecolor="#1fffff"
     bordercolor="#000000"
     borderopacity="1"
     objecttolerance="10"
     gridtolerance="10"
     guidetolerance="10"
     inkscape:pageopacity="0"
     inkscape:pageshadow="2"
     inkscape:window-width="1366"
     inkscape:window-height="706"
     id="namedview4"
     showgrid="false"
     fit-margin-top="5"
     fit-margin-left="5"
     fit-margin-right="5"
     fit-margin-bottom="5"
     inkscape:zoom="1.3485026"
     inkscape:cx="390.0194"
     inkscape:cy="-34.890163"
     inkscape:window-x="-8"
     inkscape:window-y="-8"
     inkscape:window-maximized="1"
     inkscape:current-layer="g10" /><g
     id="g10"
     inkscape:groupmode="layer"
     inkscape:label="CONDICIONES"
     transform="matrix(1.25,0,0,-1.25,3.8716325,994.80947)"><g
       id="g12"><g
         id="g14"
         clip-path="url(#clipPath16)" /></g><g
       id="g54"
       transform="translate(-55.172306,77.122579)"><path
         d="m 56.7,714.1 421.4,0"
         style="fill:none;stroke:#000000;stroke-width:1.25;stroke-linecap:butt;stroke-linejoin:miter;stroke-miterlimit:1;stroke-opacity:1;stroke-dasharray:none"
         id="path56"
         inkscape:connector-curvature="0" /></g><g
       id="g58"
       transform="translate(-55.172306,77.122579)"><path
         d="m 56.7,698.8 421.4,0"
         style="fill:none;stroke:#000000;stroke-width:1.25;stroke-linecap:butt;stroke-linejoin:miter;stroke-miterlimit:1;stroke-opacity:1;stroke-dasharray:none"
         id="path60"
         inkscape:connector-curvature="0" /></g><g
       id="g62"
       transform="translate(-55.172306,77.122579)"><path
         d="m 56.7,683.5 421.4,0"
         style="fill:none;stroke:#000000;stroke-width:1.25;stroke-linecap:butt;stroke-linejoin:miter;stroke-miterlimit:1;stroke-opacity:1;stroke-dasharray:none"
         id="path64"
         inkscape:connector-curvature="0" /></g><g
       id="g66"
       transform="translate(-55.172306,77.122579)"><path
         d="m 56.7,668.3 421.4,0"
         style="fill:none;stroke:#000000;stroke-width:1.25;stroke-linecap:butt;stroke-linejoin:miter;stroke-miterlimit:1;stroke-opacity:1;stroke-dasharray:none"
         id="path68"
         inkscape:connector-curvature="0" /></g><g
       id="g70"
       transform="translate(-55.172306,77.122579)"><path
         d="m 56.7,668.3 0,45.8"
         style="fill:none;stroke:#000000;stroke-width:1.25;stroke-linecap:butt;stroke-linejoin:miter;stroke-miterlimit:1;stroke-opacity:1;stroke-dasharray:none"
         id="path72"
         inkscape:connector-curvature="0" /></g><g
       id="g74"
       transform="translate(-54.579056,77.122579)"><path
         d="m 235,668.3 0,30.5"
         style="fill:none;stroke:#000000;stroke-width:1.25;stroke-linecap:butt;stroke-linejoin:miter;stroke-miterlimit:1;stroke-opacity:1;stroke-dasharray:none"
         id="path76"
         inkscape:connector-curvature="0" /></g><g
       id="g78"
       transform="translate(-55.172306,77.122579)"><path
         d="m 348.2,668.3 0,30.5"
         style="fill:none;stroke:#000000;stroke-width:1.25;stroke-linecap:butt;stroke-linejoin:miter;stroke-miterlimit:1;stroke-opacity:1;stroke-dasharray:none"
         id="path80"
         inkscape:connector-curvature="0" /></g><g
       id="g82"
       transform="translate(-55.172306,77.122579)"><path
         d="m 478.1,668.3 0,45.8"
         style="fill:none;stroke:#000000;stroke-width:1.25;stroke-linecap:butt;stroke-linejoin:miter;stroke-miterlimit:1;stroke-opacity:1;stroke-dasharray:none"
         id="path84"
         inkscape:connector-curvature="0" /></g><g
       id="g86"
       transform="translate(-55.172306,77.122579)"><text
         transform="matrix(1,0,0,-1,190.1,702.7)"
         id="text88"><tspan
           style="font-size:11px;font-variant:normal;font-weight:normal;writing-mode:lr-tb;fill:#000000;fill-opacity:1;fill-rule:nonzero;stroke:none;font-family:DejaVu Sans;-inkscape-font-specification:DejaVuSans"
           x="0 7.6890001 16.379 24.573999 33.066002 36.266998 43.956001 47.157001 55.847 64.042 71.027 78.012001 81.499001 89.990997 96.975998 103.081 106.568 113.553 116.754 123.739 130.438 137.423 146.916"
           y="0"
           sodipodi:role="line"
           id="tspan90">CONDICIONES DEL SISTEMA</tspan></text>
</g><g
       id="g92"
       transform="translate(-55.172306,77.122579)"><text
         transform="matrix(1,0,0,-1,59.9,688.1)"
         id="text94"><tspan
           style="font-size:11px;font-variant:normal;font-weight:normal;writing-mode:lr-tb;fill:#000000;fill-opacity:1;fill-rule:nonzero;stroke:none;font-family:DejaVu Sans;-inkscape-font-specification:DejaVuSans"
           x="0 6.5999999 12.705 20.207001 27.709 35.210999 42.195999 45.682999 52.382 61.071999 67.771004 75.273003 81.377998 88.362999 95.348 98.834999 107.327 114.312 120.417 123.904 130.88901 134.09 141.075 147.774 154.759 164.252"
           y="0"
           sodipodi:role="line"
           id="tspan96">PLAZAS TOTALES DEL SISTEMA</tspan></text>
</g><g
       id="g98"
       transform="translate(-55.172306,77.122579)"><text
         transform="matrix(1,0,0,-1,239.7,688.1)"
         id="text100"><tspan
           style="font-size:11px;font-variant:normal;font-weight:normal;writing-mode:lr-tb;fill:#000000;fill-opacity:1;fill-rule:nonzero;stroke:none;font-family:DejaVu Sans;-inkscape-font-specification:DejaVuSans"
           x="0 7.6890001 14.388 21.372999 25.674 28.764999 35.75 42.449001 49.433998 52.921001 59.905998 66.693001 70.18 77.681999 84.380997 91.365997 98.065002"
           y="0"
           sodipodi:role="line"
           id="tspan102">Cantidad de Zonas</tspan></text>
</g><g
       id="g104"
       transform="translate(-55.172306,77.122579)"><text
         transform="matrix(1,0,0,-1,352.5,688.1)"
         id="text106"><tspan
           style="font-size:11px;font-variant:normal;font-weight:normal;writing-mode:lr-tb;fill:#000000;fill-opacity:1;fill-rule:nonzero;stroke:none;font-family:DejaVu Sans;-inkscape-font-specification:DejaVuSans"
           x="0 6.5999999 9.691 16.389999 22.176001 28.875 34.573002 38.060001 41.151001 44.242001 51.227001 55.726002 62.513 68.210999 71.697998 78.682999 85.382004 89.880997 93.367996 100.87 107.569 114.554"
           y="0"
           sodipodi:role="line"
           id="tspan108">Plazas libres por Zona</tspan></text>
</g><g
       id="g110"
       transform="translate(-55.172306,77.122579)"><text
         transform="matrix(1,0,0,-1,131.8,672.8)"
         id="text112"><tspan
           style="font-size:11px;font-variant:normal;font-weight:normal;writing-mode:lr-tb;fill:#000000;fill-opacity:1;fill-rule:nonzero;stroke:none;font-family:DejaVu Sans;-inkscape-font-specification:DejaVuSans"
           x="0 6.9959998 13.992 20.988001"
           y="0"
           sodipodi:role="line"
           id="tspan114">1200</tspan></text>
</g><g
       id="g116"
       transform="translate(-55.172306,77.122579)"><text
         transform="matrix(1,0,0,-1,288.1,672.8)"
         id="text118"><tspan
           style="font-size:11px;font-variant:normal;font-weight:normal;writing-mode:lr-tb;fill:#000000;fill-opacity:1;fill-rule:nonzero;stroke:none;font-family:DejaVu Sans;-inkscape-font-specification:DejaVuSans"
           x="0"
           y="0"
           id="tspan120">4</tspan></text>
</g><g
       id="g122"
       transform="translate(-55.172306,77.122579)"><text
         transform="matrix(1,0,0,-1,402.7,672.8)"
         id="text124"><tspan
           style="font-size:11px;font-variant:normal;font-weight:normal;writing-mode:lr-tb;fill:#000000;fill-opacity:1;fill-rule:nonzero;stroke:none;font-family:DejaVu Sans;-inkscape-font-specification:DejaVuSans"
           x="0 6.9959998 13.992"
           y="0"
           sodipodi:role="line"
           id="tspan126">300</tspan></text>
</g></g></svg>